<?xml version="1.0" encoding="UTF-8" standalone="no"?>
<!-- Uploaded to: SVG Repo, www.svgrepo.com, Generator: SVG Repo Mixer Tools -->

<svg
   width="1059.9033"
   height="922.96954"
   viewBox="-5.5 0 34.446858 29.99651"
   version="1.1"
   id="svg1"
   sodipodi:docname="chevron-right-duo-button-red.svg"
   inkscape:version="1.4 (e7c3feb1, 2024-10-09)"
   xml:space="preserve"
   xmlns:inkscape="http://www.inkscape.org/namespaces/inkscape"
   xmlns:sodipodi="http://sodipodi.sourceforge.net/DTD/sodipodi-0.dtd"
   xmlns="http://www.w3.org/2000/svg"
   xmlns:svg="http://www.w3.org/2000/svg"
   xmlns:rdf="http://www.w3.org/1999/02/22-rdf-syntax-ns#"
   xmlns:cc="http://creativecommons.org/ns#"
   xmlns:dc="http://purl.org/dc/elements/1.1/"
   xmlns:sketch="http://www.bohemiancoding.com/sketch/ns"><sodipodi:namedview
     id="namedview1"
     pagecolor="#ffffff"
     bordercolor="#000000"
     borderopacity="0.25"
     inkscape:showpageshadow="2"
     inkscape:pageopacity="0.0"
     inkscape:pagecheckerboard="true"
     inkscape:deskcolor="#d1d1d1"
     inkscape:zoom="0.46739872"
     inkscape:cx="677.15205"
     inkscape:cy="423.62119"
     inkscape:current-layer="svg1" /><title
     id="title1">chevron-left</title><desc
     id="desc1">Created with Sketch Beta.</desc><defs
     id="defs1" /><metadata
     id="metadata1"><rdf:RDF><cc:Work
         rdf:about=""><dc:title>chevron-left</dc:title></cc:Work></rdf:RDF></metadata><rect
     style="opacity:1;fill:#ca3142;stroke-width:0.0767291;fill-opacity:1"
     id="rect1"
     width="34.446857"
     height="29.996511"
     x="-5.5"
     y="-6.6952782e-07"
     ry="6.4647493" /><g
     id="g4"
     transform="matrix(0.97788863,0,0,0.97507775,0.64322105,-0.98634741)"
     style="fill:#ffffff;fill-opacity:1"><g
       id="g3"
       transform="translate(0.34034323)"><g
         id="Page-1"
         stroke="none"
         stroke-width="1"
         fill="none"
         fill-rule="evenodd"
         sketch:type="MSPage"
         transform="matrix(-0.84416846,0,0,0.84416846,14.007761,5.4189668)"
         style="fill:#ffffff;fill-opacity:1"><g
           id="Icon-Set-Filled"
           sketch:type="MSLayerGroup"
           transform="translate(-423,-1196)"
           fill="#000000"
           style="fill:#ffffff;fill-opacity:1"><path
             d="m 429.6898,1209 9.256,-8.4 c 0.831,-0.83 0.831,-2.17 0,-3 -0.83,-0.84 -3.7518,-0.84 -4.5828,0 l -10.767,9.76 c -0.45,0.45 -0.648,1.05 -0.611,1.64 -0.037,0.59 0.161,1.19 0.611,1.64 l 10.767,9.76 c 0.831,0.84 3.7528,0.84 4.5828,0 0.831,-0.83 0.831,-2.17 0,-3 l -9.256,-8.4"
             id="chevron-left"
             sketch:type="MSShapeGroup"
             style="fill:#ffffff;fill-opacity:1"
             sodipodi:nodetypes="ccccccccccc" /></g></g><g
         id="g2"
         stroke="none"
         stroke-width="1"
         fill="none"
         fill-rule="evenodd"
         sketch:type="MSPage"
         transform="matrix(-0.84416846,0,0,0.84416846,24.60256,5.4189668)"
         style="fill:#ffffff;fill-opacity:1"><g
           id="g1"
           sketch:type="MSLayerGroup"
           transform="translate(-423,-1196)"
           fill="#000000"
           style="fill:#ffffff;fill-opacity:1"><path
             d="m 429.6898,1209 9.256,-8.4 c 0.831,-0.83 0.831,-2.17 0,-3 -0.83,-0.84 -3.7518,-0.84 -4.5828,0 l -10.767,9.76 c -0.45,0.45 -0.648,1.05 -0.611,1.64 -0.037,0.59 0.161,1.19 0.611,1.64 l 10.767,9.76 c 0.831,0.84 3.7528,0.84 4.5828,0 0.831,-0.83 0.831,-2.17 0,-3 l -9.256,-8.4"
             id="path1"
             sketch:type="MSShapeGroup"
             style="fill:#ffffff;fill-opacity:1"
             sodipodi:nodetypes="ccccccccccc" /></g></g></g></g></svg>
