<?xml version="1.0" encoding="UTF-8" standalone="no"?>
<!-- Created with Inkscape (http://www.inkscape.org/) -->

<svg
   width="25.003124mm"
   height="36.289257mm"
   viewBox="0 0 25.003124 36.289256"
   version="1.1"
   id="svg1"
   inkscape:version="1.4 (e7c3feb1, 2024-10-09)"
   sodipodi:docname="red-hash.svg"
   xmlns:inkscape="http://www.inkscape.org/namespaces/inkscape"
   xmlns:sodipodi="http://sodipodi.sourceforge.net/DTD/sodipodi-0.dtd"
   xmlns="http://www.w3.org/2000/svg"
   xmlns:svg="http://www.w3.org/2000/svg">
  <sodipodi:namedview
     id="namedview1"
     pagecolor="#ffffff"
     bordercolor="#000000"
     borderopacity="0.25"
     inkscape:showpageshadow="2"
     inkscape:pageopacity="0.0"
     inkscape:pagecheckerboard="true"
     inkscape:deskcolor="#d1d1d1"
     inkscape:document-units="mm"
     inkscape:zoom="2.3144026"
     inkscape:cx="-70.64458"
     inkscape:cy="155.97978"
     inkscape:current-layer="layer1" />
  <defs
     id="defs1" />
  <g
     inkscape:label="Layer 1"
     inkscape:groupmode="layer"
     id="layer1"
     transform="translate(-88.458083,-46.94652)">
    <path
       d="m 113.46121,61.457262 q 0,0.223242 -0.12403,0.520898 -0.0992,0.297657 -0.32246,0.545704 -0.22324,0.248046 -0.5705,0.396875 -0.34727,0.148828 -0.81856,0.09922 -0.57051,-0.07441 -1.14102,-0.07441 -0.5705,-0.0248 -1.14101,-0.0248 -1.0666,0 -1.53789,0.223242 -0.44649,0.198437 -0.62012,0.595312 -0.17363,0.372071 -0.24805,0.967383 -0.0496,0.570508 -0.34726,1.314648 -0.14883,0.372071 -0.34727,0.719336 -0.19843,0.347266 -0.19843,0.694532 l 0.0496,0.148828 q 0.22324,0.198437 0.52089,0.272851 0.32246,0.04961 0.64493,0.04961 0.5705,0 1.14101,-0.07441 0.57051,-0.09922 1.14102,-0.09922 0.32246,0 0.74414,0.09922 0.44648,0.07441 0.81855,0.248046 0.39688,0.173633 0.64492,0.47129 0.27286,0.272851 0.27286,0.669726 0,0.322461 -0.19844,0.595313 -0.17363,0.272851 -0.47129,0.496093 -0.27285,0.198438 -0.59531,0.322461 -0.32246,0.09922 -0.62012,0.09922 -0.49609,0 -0.94258,-0.198438 -0.42168,-0.198437 -0.91777,-0.198437 -0.69453,0 -1.38906,0.09922 -0.66973,0.09922 -1.36426,0.09922 -0.64492,0.347266 -0.86817,0.917774 -0.22324,0.570508 -0.32246,1.21543 -0.0744,0.620117 -0.14883,1.265039 -0.0744,0.644921 -0.39687,1.116211 -0.19844,0.272851 -0.22324,0.446484 -0.0248,0.173633 -0.0248,0.42168 0,0.322461 -0.0992,0.595312 -0.0992,0.272852 -0.22324,0.545703 -0.0992,0.248047 -0.19844,0.496094 -0.0744,0.248047 -0.0744,0.545703 0,0.173633 -0.19844,0.620117 -0.17363,0.446485 -0.37207,0.942578 -0.19844,0.471289 -0.34726,0.84336 -0.12403,0.37207 -0.0248,0.396875 0,0.322461 -0.12402,0.74414 -0.0992,0.396875 -0.37207,0.744141 -0.24805,0.347266 -0.66973,0.595312 -0.42168,0.248047 -1.016991,0.248047 -0.446484,0 -0.719336,-0.173633 -0.248047,-0.198437 -0.396875,-0.471289 -0.148828,-0.297656 -0.198437,-0.644921 -0.04961,-0.372071 -0.04961,-0.744141 0,-0.595313 0.09922,-0.768945 0.124024,-0.198438 0.272852,-0.297657 0.173633,-0.124023 0.347265,-0.297656 0.173633,-0.198437 0.297657,-0.768945 -0.04961,-0.347266 0.07441,-0.669727 0.124023,-0.322461 0.297656,-0.620117 0.173636,-0.322461 0.297656,-0.620117 0.14883,-0.322461 0.14883,-0.644922 0,-0.644922 0.19844,-1.141016 0.22324,-0.520898 0.22324,-1.11621 0,-0.42168 0.0992,-0.79375 0.12402,-0.396875 0.27285,-0.768946 0.14883,-0.37207 0.29765,-0.74414 0.17364,-0.396875 0.27286,-0.79375 -0.24805,-0.248047 -0.64493,-0.322461 -0.37207,-0.07441 -0.81855,-0.07441 -0.42168,0 -0.84336,0.04961 -0.396875,0.02481 -0.719336,0.02481 -0.396875,0 -0.79375,-0.04961 -0.396875,-0.04961 -0.74414,-0.248047 -0.173633,0.198438 -0.322461,0.297657 -0.148828,0.09922 -0.272852,0.198437 -0.09922,0.07441 -0.198437,0.223242 -0.09922,0.148829 -0.173633,0.446485 -0.09922,0.297656 -0.148828,0.644922 -0.04961,0.322461 -0.148828,0.74414 -0.07441,0.42168 -0.248047,0.967383 -0.148828,0.520898 -0.471289,1.21543 -0.148828,0.322461 -0.198438,0.669726 -0.04961,0.347266 -0.07441,0.694532 -0.02481,0.347265 -0.07441,0.694531 -0.02481,0.347265 -0.148828,0.669726 -0.148828,0.396875 -0.347266,0.719336 -0.173632,0.322461 -0.347265,0.620117 -0.173633,0.297657 -0.297657,0.595313 -0.09922,0.297656 -0.09922,0.620117 0,0.520899 -0.198438,0.992188 -0.173633,0.471289 -0.496094,0.843359 -0.32246,0.347266 -0.768945,0.570508 -0.446484,0.223242 -0.967383,0.223242 -0.297656,0 -0.620117,-0.07441 -0.322461,-0.09922 -0.595312,-0.223242 -0.07441,-0.570508 -0.223242,-1.141016 -0.124024,-0.570508 -0.124024,-1.141016 0,-0.520898 0.347266,-1.265039 0.347265,-0.74414 0.768945,-1.53789 0.42168,-0.79375 0.768945,-1.488281 0.347266,-0.719336 0.347266,-1.165821 0,-0.248047 0.198437,-0.694531 0.223243,-0.446484 0.471289,-0.967383 0.272852,-0.520898 0.47129,-1.041797 0.223242,-0.545703 0.223242,-0.992187 0,-0.446484 -0.496094,-0.570508 -0.496094,-0.124023 -1.016992,-0.124023 -0.248047,0 -0.446485,0.0248 -0.198437,0 -0.32246,0 -0.372071,0 -0.79375,-0.0248 -0.396875,-0.04961 -0.768946,-0.173633 -0.347265,-0.148828 -0.595312,-0.42168 -0.223242,-0.272851 -0.223242,-0.74414 0,-0.620118 0.37207,-0.967383 0.37207,-0.347266 0.917773,-0.496094 0.545703,-0.173633 1.141016,-0.198437 0.620117,-0.02481 1.066601,-0.02481 0.42168,0 0.84336,0.09922 0.421679,0.07441 0.892969,0.07441 0.446484,0 0.669726,-0.322461 0.248047,-0.347266 0.396875,-0.818555 0.148828,-0.496094 0.272852,-1.016992 0.124023,-0.545703 0.322461,-0.942578 0.148828,-0.347266 0.297656,-0.620117 0.173633,-0.297657 0.173633,-0.669727 0,-0.272852 -0.248047,-0.322461 -0.223242,-0.07441 -0.471289,-0.07441 -0.372071,0 -0.595313,0 -0.198437,0 -0.37207,0.0248 -0.173633,0 -0.396875,0 -0.223242,0 -0.620117,0 -0.446485,0 -0.892969,-0.07441 -0.446484,-0.07441 -0.818555,-0.248047 -0.347265,-0.198438 -0.570507,-0.520899 -0.198438,-0.322461 -0.198438,-0.818554 0,-0.396875 0.223242,-0.694532 0.223242,-0.322461 0.545703,-0.520898 0.347266,-0.223242 0.719336,-0.322461 0.396875,-0.124023 0.744141,-0.124023 0.173633,0 0.570508,0.04961 0.396875,0.04961 0.868164,0.124023 0.496093,0.04961 0.992187,0.09922 0.496094,0.04961 0.868164,0.07441 0.297656,0 0.471289,-0.223242 0.173633,-0.248047 0.272852,-0.545703 0.124023,-0.322461 0.198437,-0.644922 0.07441,-0.347266 0.173633,-0.570508 0.04961,-0.446484 0.148828,-0.79375 0.124024,-0.347265 0.248047,-0.694531 0.148828,-0.37207 0.272852,-0.79375 0.124023,-0.446484 0.198437,-1.041797 0,-0.322461 0,-0.719336 0.02481,-0.396875 0.07441,-0.79375 0.04961,-0.421679 0.148828,-0.79375 0.09922,-0.37207 0.272852,-0.620117 -0.09922,-0.322461 -0.09922,-0.768945 0,-0.620117 0.198438,-1.339453 0.223242,-0.744141 0.620117,-1.364258 0.396875,-0.644922 0.942575,-1.066602 0.57051,-0.446484 1.28985,-0.446484 0.86816,0 1.31465,0.545703 0.47128,0.545703 0.47128,1.389063 0,0.347265 0.0496,0.595312 0.0496,0.248047 0,0.520899 -0.0248,0.248046 -0.19843,0.620117 -0.17364,0.347265 -0.59532,0.942578 l -0.86816,3.447851 q -0.17363,0.124024 -0.44648,0.744141 -0.24805,0.620117 -0.4961,1.364258 -0.24805,0.74414 -0.47129,1.413867 -0.19844,0.644922 -0.27285,0.843359 0.12402,0.446485 0.42168,0.818555 0.29766,0.347266 0.89297,0.347266 0.34726,0 0.69453,-0.173633 0.34727,-0.173633 0.89297,-0.173633 0.42168,0 0.84336,0.04961 0.44648,0.02481 0.86816,0.02481 0.5209,0 0.74414,-0.248047 0.24805,-0.248047 0.34727,-0.595312 0.12402,-0.372071 0.17363,-0.768946 0.0744,-0.421679 0.22324,-0.768945 0.19844,-0.446484 0.32246,-0.595312 0.14883,-0.173633 0.22325,-0.272852 0.0744,-0.124023 0.0992,-0.297656 0.0496,-0.173633 0.0496,-0.669727 0,-0.37207 0.12402,-0.719336 0.12402,-0.37207 0.27285,-0.719336 0.17363,-0.37207 0.29766,-0.74414 0.12402,-0.372071 0.12402,-0.768946 0,-0.148828 -0.17363,-0.347265 -0.14883,-0.198438 -0.14883,-0.42168 0,-0.446484 0.12402,-0.917773 0.14883,-0.471289 0.14883,-1.016992 0,-0.446485 0.22324,-0.942579 0.24805,-0.520898 0.64492,-0.942578 0.39688,-0.446484 0.86817,-0.719336 0.49609,-0.272851 0.99219,-0.272851 0.5457,0 0.86816,0.396875 0.34727,0.37207 0.62012,0.768945 l 0.0496,1.116211 q 0.0248,0.496094 -0.14883,1.041797 -0.14883,0.545703 -0.57051,0.892969 0,0.496093 -0.14883,0.967382 -0.14883,0.446485 -0.14883,0.892969 0,0.446485 -0.0992,0.694531 -0.0744,0.248047 -0.24805,0.520899 -0.14883,0.272851 -0.37207,0.669726 -0.22324,0.396875 -0.4961,1.141016 -0.0744,0.04961 -0.27285,0.520898 -0.17363,0.471289 -0.37207,1.066602 -0.19843,0.570508 -0.37207,1.066602 -0.14883,0.471289 -0.14883,0.545703 0,0.148828 0.19844,0.248047 0.19844,0.09922 0.44649,0.148828 0.24804,0.04961 0.47129,0.07441 0.24804,0.0248 0.34726,0.0248 0.42168,0 0.84336,-0.07441 0.42168,-0.07441 0.84336,-0.07441 0.27285,0 0.59531,0.09922 0.32246,0.09922 0.57051,0.272852 0.27285,0.173632 0.44648,0.421679 0.17364,0.223242 0.17364,0.496094 z m -9.10332,1.810742 q -0.14883,-0.198437 -0.27285,-0.248047 -0.0992,-0.04961 -0.22325,-0.04961 -0.32246,0 -0.59531,0.04961 -0.27285,0.04961 -0.5457,0.04961 -0.34727,0 -0.69453,-0.124024 -0.32246,-0.124023 -0.66973,-0.124023 -0.49609,0 -0.99219,0.173633 -0.496091,0.173632 -0.992185,0.173632 -0.396875,0.496094 -0.644922,1.091407 -0.248047,0.595312 -0.248047,1.240234 0,0.223242 -0.09922,0.446484 -0.09922,0.223243 -0.223242,0.446485 -0.09922,0.223242 -0.198437,0.471289 -0.09922,0.248047 -0.09922,0.520898 0,0.42168 0.198437,0.496094 0.223243,0.07441 0.520899,0.07441 0.644922,0 1.314648,0.07441 0.694527,0.07441 1.364257,0.07441 0.39688,0 0.76895,-0.04961 0.37207,-0.04961 0.74414,-0.198438 0.19843,-0.545703 0.39687,-0.868164 0.22324,-0.322461 0.39688,-0.620117 0.19843,-0.297656 0.32246,-0.694531 0.12402,-0.42168 0.12402,-1.141016 0,-0.347265 0.17363,-0.620117 0.17364,-0.297656 0.17364,-0.644922 z"
       id="text1"
       style="font-size:50.8px;line-height:1;font-family:'Special Elite';-inkscape-font-specification:'Special Elite, Normal';letter-spacing:0px;word-spacing:0px;fill:#e40000;fill-opacity:0.941392;stroke-width:3"
       aria-label="#" />
  </g>
</svg>
