<?xml version="1.0" encoding="UTF-8" standalone="no"?>
<!-- Uploaded to: SVG Repo, www.svgrepo.com, Generator: SVG Repo Mixer Tools -->

<svg
   width="685.79504"
   height="603.65381"
   viewBox="-5.5 0 22.288339 19.618749"
   version="1.1"
   id="svg1"
   sodipodi:docname="chevron-right-duo-thick-orange.svg"
   inkscape:version="1.4 (e7c3feb1, 2024-10-09)"
   xml:space="preserve"
   xmlns:inkscape="http://www.inkscape.org/namespaces/inkscape"
   xmlns:sodipodi="http://sodipodi.sourceforge.net/DTD/sodipodi-0.dtd"
   xmlns="http://www.w3.org/2000/svg"
   xmlns:svg="http://www.w3.org/2000/svg"
   xmlns:rdf="http://www.w3.org/1999/02/22-rdf-syntax-ns#"
   xmlns:cc="http://creativecommons.org/ns#"
   xmlns:dc="http://purl.org/dc/elements/1.1/"
   xmlns:sketch="http://www.bohemiancoding.com/sketch/ns"><sodipodi:namedview
     id="namedview1"
     pagecolor="#ffffff"
     bordercolor="#000000"
     borderopacity="0.25"
     inkscape:showpageshadow="2"
     inkscape:pageopacity="0.0"
     inkscape:pagecheckerboard="0"
     inkscape:deskcolor="#d1d1d1"
     inkscape:zoom="1.2740558"
     inkscape:cx="239.00052"
     inkscape:cy="216.63101"
     inkscape:current-layer="svg1" /><title
     id="title1">chevron-left</title><desc
     id="desc1">Created with Sketch Beta.</desc><defs
     id="defs1" /><metadata
     id="metadata1"><rdf:RDF><cc:Work
         rdf:about=""><dc:title>chevron-left</dc:title></cc:Work></rdf:RDF></metadata><rect
     style="opacity:1;fill:#7f7f7f;fill-opacity:0.0501193;stroke:#e08e56;stroke-width:1.625;stroke-dasharray:none;stroke-opacity:1"
     id="rect3"
     width="20.663338"
     height="17.993748"
     x="-4.6874995"
     y="0.8125006"
     ry="6.3446159" /><g
     id="g3"
     transform="matrix(0.38884625,0,0,0.38884625,3.4680568,5.0071233)"><g
       id="Page-1"
       stroke="none"
       stroke-width="1"
       fill="none"
       fill-rule="evenodd"
       sketch:type="MSPage"
       transform="matrix(-1,0,0,1,9.49425,-0.65)"
       style="fill:#e08e56;fill-opacity:1"><g
         id="Icon-Set-Filled"
         sketch:type="MSLayerGroup"
         transform="translate(-423,-1196)"
         fill="#000000"
         style="fill:#e08e56;fill-opacity:1"><path
           d="m 428.115,1209 9.256,-8.4 c 0.831,-0.83 0.831,-2.17 0,-3 -0.83,-0.84 -2.177,-0.84 -3.008,0 l -10.767,9.76 c -0.45,0.45 -0.648,1.05 -0.611,1.64 -0.037,0.59 0.161,1.19 0.611,1.64 l 10.767,9.76 c 0.831,0.84 2.178,0.84 3.008,0 0.831,-0.83 0.831,-2.17 0,-3 l -9.256,-8.4"
           id="chevron-left"
           sketch:type="MSShapeGroup"
           style="fill:#e08e56;fill-opacity:1" /></g></g><g
       id="g2"
       stroke="none"
       stroke-width="1"
       fill="none"
       fill-rule="evenodd"
       sketch:type="MSPage"
       transform="matrix(-1,0,0,1,20.016527,-0.65)"
       style="fill:#e08e56;fill-opacity:1"><g
         id="g1"
         sketch:type="MSLayerGroup"
         transform="translate(-423,-1196)"
         fill="#000000"
         style="fill:#e08e56;fill-opacity:1"><path
           d="m 428.115,1209 9.256,-8.4 c 0.831,-0.83 0.831,-2.17 0,-3 -0.83,-0.84 -2.177,-0.84 -3.008,0 l -10.767,9.76 c -0.45,0.45 -0.648,1.05 -0.611,1.64 -0.037,0.59 0.161,1.19 0.611,1.64 l 10.767,9.76 c 0.831,0.84 2.178,0.84 3.008,0 0.831,-0.83 0.831,-2.17 0,-3 l -9.256,-8.4"
           id="path1"
           sketch:type="MSShapeGroup"
           style="fill:#e08e56;fill-opacity:1" /></g></g></g></svg>
