<?xml version="1.0" encoding="UTF-8" standalone="no"?>
<!-- Uploaded to: SVG Repo, www.svgrepo.com, Generator: SVG Repo Mixer Tools -->

<svg
   width="785.7196"
   height="740.30768"
   viewBox="-5.5 0 25.535887 24.06"
   version="1.1"
   id="svg1"
   sodipodi:docname="chevron-right-duo-thick.svg"
   inkscape:version="1.4 (e7c3feb1, 2024-10-09)"
   xmlns:inkscape="http://www.inkscape.org/namespaces/inkscape"
   xmlns:sodipodi="http://sodipodi.sourceforge.net/DTD/sodipodi-0.dtd"
   xmlns="http://www.w3.org/2000/svg"
   xmlns:svg="http://www.w3.org/2000/svg"
   xmlns:rdf="http://www.w3.org/1999/02/22-rdf-syntax-ns#"
   xmlns:cc="http://creativecommons.org/ns#"
   xmlns:dc="http://purl.org/dc/elements/1.1/"
   xmlns:sketch="http://www.bohemiancoding.com/sketch/ns">
  <sodipodi:namedview
     id="namedview1"
     pagecolor="#ffffff"
     bordercolor="#000000"
     borderopacity="0.25"
     inkscape:showpageshadow="2"
     inkscape:pageopacity="0.0"
     inkscape:pagecheckerboard="0"
     inkscape:deskcolor="#d1d1d1"
     inkscape:zoom="0.85556577"
     inkscape:cx="441.2285"
     inkscape:cy="368.17742"
     inkscape:current-layer="svg1" />
  <title
     id="title1">chevron-left</title>
  <desc
     id="desc1">Created with Sketch Beta.</desc>
  <defs
     id="defs1" />
  <g
     id="Page-1"
     stroke="none"
     stroke-width="1"
     fill="none"
     fill-rule="evenodd"
     sketch:type="MSPage"
     transform="matrix(-1,0,0,1,9.49425,-0.97)">
    <g
       id="Icon-Set-Filled"
       sketch:type="MSLayerGroup"
       transform="translate(-423,-1196)"
       fill="#000000">
      <path
         d="m 428.115,1209 9.256,-8.4 c 0.831,-0.83 0.831,-2.17 0,-3 -0.83,-0.84 -2.177,-0.84 -3.008,0 l -10.767,9.76 c -0.45,0.45 -0.648,1.05 -0.611,1.64 -0.037,0.59 0.161,1.19 0.611,1.64 l 10.767,9.76 c 0.831,0.84 2.178,0.84 3.008,0 0.831,-0.83 0.831,-2.17 0,-3 l -9.256,-8.4"
         id="chevron-left"
         sketch:type="MSShapeGroup" />
    </g>
  </g>
  <metadata
     id="metadata1">
    <rdf:RDF>
      <cc:Work
         rdf:about="">
        <dc:title>chevron-left</dc:title>
      </cc:Work>
    </rdf:RDF>
  </metadata>
  <g
     id="g2"
     stroke="none"
     stroke-width="1"
     fill="none"
     fill-rule="evenodd"
     sketch:type="MSPage"
     transform="matrix(-1,0,0,1,20.016527,-0.97)">
    <g
       id="g1"
       sketch:type="MSLayerGroup"
       transform="translate(-423,-1196)"
       fill="#000000">
      <path
         d="m 428.115,1209 9.256,-8.4 c 0.831,-0.83 0.831,-2.17 0,-3 -0.83,-0.84 -2.177,-0.84 -3.008,0 l -10.767,9.76 c -0.45,0.45 -0.648,1.05 -0.611,1.64 -0.037,0.59 0.161,1.19 0.611,1.64 l 10.767,9.76 c 0.831,0.84 2.178,0.84 3.008,0 0.831,-0.83 0.831,-2.17 0,-3 l -9.256,-8.4"
         id="path1"
         sketch:type="MSShapeGroup" />
    </g>
  </g>
</svg>
